<svg xmlns="http://www.w3.org/2000/svg" viewBox="0 0 457.087 457.087" width="512" height="512"><g fill="#FFF"><path d="M156.8 328.982l-4.46 51.058h152.41l-4.463-51.058"/><path d="M422.762 77.047H34.326C15.398 77.047 0 92.447 0 111.373v234.34c0 18.93 15.398 34.327 34.326 34.327h87.898l5.887-67.364c.68-7.75 7.166-13.694 14.944-13.694h170.98c7.777 0 14.265 5.945 14.942 13.694l5.887 67.364h87.898c18.93 0 34.327-15.398 34.327-34.326v-234.34c0-18.928-15.397-34.327-34.325-34.327zm-89.447 200.39c-32.656 0-60.035-22.954-66.896-53.57h-75.752c-6.862 30.616-34.24 53.57-66.896 53.57-37.81 0-68.568-30.76-68.568-68.57s30.76-68.568 68.568-68.568c32.655 0 60.034 22.952 66.896 53.567h75.75c6.863-30.615 34.24-53.568 66.897-53.568 37.81 0 68.568 30.76 68.568 68.567 0 37.81-30.76 68.57-68.568 68.57z"/><path d="M123.772 193.867h35.532C153.44 180.03 139.72 170.3 123.772 170.3c-21.267 0-38.568 17.3-38.568 38.567 0 21.268 17.302 38.57 38.568 38.57 15.95 0 29.67-9.732 35.532-23.57h-35.532c-8.284 0-15-6.716-15-15s6.716-15 15-15zM333.315 170.298c-15.95 0-29.67 9.732-35.533 23.568h35.533c8.284 0 15 6.716 15 15s-6.716 15-15 15h-35.533c5.863 13.838 19.583 23.57 35.533 23.57 21.267 0 38.568-17.303 38.568-38.57 0-21.266-17.3-38.568-38.568-38.568z"/></g></svg>