<svg xmlns="http://www.w3.org/2000/svg" width="512" height="512" viewBox="0 0 547.74 547.74"><path fill="#FFF" d="M273.87 547.74c151.256 0 273.87-122.617 273.87-273.87S425.126 0 273.87 0 0 122.617 0 273.87s122.614 273.87 273.87 273.87zm80.252-501.43c40.318 14.217 75.723 38.847 102.987 70.662L356.253 219.99c-9.94-15.166-23.954-27.42-40.487-35.208L354.122 46.31zm-39.496-11.166l-11.54 143.704c-5.33-1.625-10.782-2.794-16.287-3.498L268.06 31.824c15.594-.395 31.194.72 46.564 3.32zm-40.756 193.59c24.927 0 45.135 20.21 45.135 45.136s-20.208 45.135-45.135 45.135-45.135-20.208-45.135-45.135 20.208-45.135 45.135-45.135zM211.71 350.22c14.18 11.53 31.293 18.854 49.268 21.246L211.8 506.986c-40.48-10.8-78.014-32.046-108.29-62.23l108.2-94.536z"/></svg>