<?xml version="1.0" encoding="utf-8"?>
<!-- Generator: Adobe Illustrator 18.0.0, SVG Export Plug-In . SVG Version: 6.00 Build 0)  -->
<!DOCTYPE svg PUBLIC "-//W3C//DTD SVG 1.1//EN" "http://www.w3.org/Graphics/SVG/1.1/DTD/svg11.dtd">
<svg version="1.1" id="Layer_1" xmlns="http://www.w3.org/2000/svg" xmlns:xlink="http://www.w3.org/1999/xlink" x="0px" y="0px"
	 viewBox="0 0 64 64" enable-background="new 0 0 64 64" xml:space="preserve">
<g>
	<g id="circle_x5F_bg_9_">
		<circle fill="#7d7d7d" cx="32" cy="32" r="32"/>
	</g>
	<g>
		<path fill="#FFFFFF" d="M29.8,40.6l-1.4-3.9c0,0-2.3,2.6-5.7,2.6c-3,0-5.1-2.7-5.1-7.1c0-5.6,2.7-7.6,5.4-7.6c3.8,0,5,2.6,6.1,5.9
			l1.4,4.5c1.4,4.4,4,7.9,11.5,7.9c5.4,0,9.1-1.7,9.1-6.3c0-3.7-2-5.6-5.7-6.5l-2.8-0.6C40.6,29.2,40,28.3,40,27
			c0-1.5,1.2-2.4,3.1-2.4c2.1,0,3.2,0.8,3.4,2.8l4.4-0.5c-0.3-4.1-3-5.8-7.5-5.8c-3.9,0-7.7,1.5-7.7,6.5c0,3.1,1.4,5,5,5.9l3,0.7
			c2.2,0.5,3,1.5,3,2.8c0,1.7-1.6,2.4-4.5,2.4c-4.4,0-6.2-2.4-7.3-5.7l-1.4-4.5c-1.8-5.9-4.7-8.1-10.5-8.1c-6.4,0-9.8,4.2-9.8,11.4
			c0,6.9,3.4,10.6,9.5,10.6C27.4,43,29.8,40.6,29.8,40.6L29.8,40.6z"/>
	</g>
</g>
</svg>
