<svg xmlns="http://www.w3.org/2000/svg" width="163" height="162" xmlns:xlink="http://www.w3.org/1999/xlink">
  <defs>
    <path id="a" d="M88.43 1.34l3.36.37 3.3.49 3.24.61 3.19.73 3.13.85 3.07.97 3 1.07 2.94 1.19 2.88 1.29 2.8 1.39 2.73 1.5 2.67 1.59 2.58 1.68 2.52 1.78 2.43 1.86 2.35 1.95 2.28 2.03 2.18 2.12 2.11 2.18 2.01 2.26 1.93 2.34 1.83 2.4 1.74 2.46 1.65 2.53 1.55 2.59 1.45 2.64 1.35 2.69 1.24 2.75 1.15 2.79 1.03 2.84.93 2.88.82 2.92.7 2.95.6 2.99.47 3.02.36 3.04.24 3.07.11 3.09-.01 3.52-.16 3.48-.3 3.44-.44 3.38-.57 3.33-.71 3.27-.84 3.22-.97 3.16-1.09 3.1-1.21 3.03-1.33 2.97-1.45 2.89-1.55 2.83-1.67 2.75-1.77 2.67-1.87 2.59-1.97 2.52-2.07 2.42-2.16 2.35-2.26 2.25-2.33 2.16-2.43 2.06-2.5 1.97-2.58 1.88-2.66 1.76-2.72 1.67-2.8 1.56-2.85 1.45-2.93 1.34-2.98 1.23-3.03 1.1-3.09 1-3.14.87-3.18.74-3.23.62-3.27.49-3.31.36-3.33.23-3.38.09-3.39-.05-3.32-.17-3.27-.31-3.23-.42-3.19-.55-3.14-.66-3.09-.78-3.04-.9-2.98-1-2.93-1.11-2.87-1.22-2.81-1.32-2.74-1.42-2.68-1.53-2.61-1.61-2.54-1.71-2.47-1.8-2.39-1.89-2.31-1.98-2.23-2.06-2.16-2.14-2.06-2.22-1.98-2.3-1.89-2.37-1.8-2.44-1.71-2.51-1.61-2.57-1.51-2.64-1.41-2.71-1.31-2.76-1.2-2.82-1.09-2.87-.98-2.92-.87-2.98-.76-3.02L2 96.17l-.52-3.11-.4-3.15-.27-3.18-.15-3.22-.01-3.25.12-3.44.25-3.38.38-3.34.51-3.28.64-3.22.76-3.16.88-3.09 1-3.04 1.11-2.97 1.22-2.91 1.33-2.84 1.43-2.76 1.54-2.7 1.64-2.62 1.73-2.55 1.83-2.46 1.92-2.39 2-2.31 2.09-2.23 2.18-2.14 2.25-2.06 2.33-1.97 2.41-1.88 2.47-1.79 2.54-1.69 2.61-1.6 2.67-1.5 2.73-1.41 2.79-1.3 2.84-1.21 2.89-1.09 2.94-1 2.98-.88 3.03-.78 3.07-.66 3.1-.56 3.13-.43 3.17-.32 3.2-.21 3.21-.08 3.46.1 3.4.23zm-9.44 41.38l-1.58.13-1.55.2-1.54.27-1.52.32-1.49.37-1.48.44-1.44.49-1.42.55-1.4.6-1.36.65-1.34.7-1.3.75-1.27.8-1.24.85-1.21.89-1.16.94-1.13.98-1.09 1.03-1.06 1.06-1.01 1.11-.97 1.14-.92 1.18-.88 1.22-.83 1.25-.79 1.29-.74 1.32-.69 1.35-.63 1.38-.59 1.41-.53 1.43-.47 1.47-.42 1.49-.36 1.51-.31 1.53-.24 1.56-.18 1.57-.12 1.6-.06 1.61.01 1.53.08 1.51.14 1.5.21 1.49.27 1.46.33 1.46.38 1.43.45 1.41.5 1.39.56 1.37.61 1.34.66 1.32.72 1.29.76 1.26.82 1.23.86 1.2.9 1.17.95 1.13.99 1.1 1.04 1.07 1.07 1.02 1.11.99 1.15.94 1.19.9 1.22.86 1.26.82 1.28.76 1.32.73 1.34.67 1.38.62 1.4.57 1.42.52 1.45.46 1.47.41 1.49.35 1.51.3 1.53.23 1.55.17 1.56.11 1.58.05 1.57-.02 1.56-.08 1.55-.14 1.53-.21 1.51-.26 1.49-.32 1.47-.38 1.45-.43 1.43-.49 1.4-.54 1.38-.59 1.35-.65 1.31-.69 1.29-.74 1.26-.79 1.23-.84 1.19-.87 1.16-.92 1.12-.97 1.08-1 1.05-1.04 1-1.08.96-1.12.92-1.16.88-1.18.83-1.22.78-1.25.73-1.29.69-1.31.63-1.34.58-1.36.53-1.4.48-1.41.41-1.44.36-1.46.3-1.48.25-1.5.18-1.52.11-1.53.06-1.55-.02-1.57-.07-1.56-.14-1.54-.2-1.53-.27-1.51-.32-1.48-.38-1.47-.43-1.45-.5-1.43-.54-1.4-.6-1.37-.65-1.35-.71-1.32-.75-1.29-.79-1.26-.85-1.23-.89-1.2-.93-1.16-.98-1.12-1.02-1.08-1.06-1.05-1.09-1.01-1.14-.96-1.17-.92-1.2-.88-1.24-.84-1.27-.78-1.3-.74-1.33-.69-1.36-.63-1.38-.59-1.42-.53-1.43-.47-1.46-.42-1.48-.37-1.5-.3-1.52-.24-1.54-.18-1.56-.12-1.57-.06-1.61.01-1.59.08z"/>
    <path id="b" d="M95.49 79.45l-5.88 11.93-21.09-43.07L50.5 79.45H.67l-.02.92v1.2l.02 2.39.12 2.59.15 1.69 56.6-.42L67.68 70.3l21.9 44.73 13.4-27.21h59.08l.16-1.82.18-3.57-.03-3.04-66.88.06z"/>
  </defs>
  <use fill="#fff" xlink:href="#a"/>
  <use fill="#f44336" xlink:href="#b"/>
</svg>