<svg xmlns="http://www.w3.org/2000/svg" width="512" height="512" viewBox="0 0 60.02 60.02"><g fill="#7d7d7d"><path d="M59.766 15.896l-.363-.386h-1.837l.41-3.34c.042-.424-.098-.848-.383-1.163-.286-.315-.694-.497-1.12-.497h-2.437V7c0-.82-.67-1.49-1.49-1.49h-2.51V2c0-.82-.67-1.49-1.49-1.49h-37.02c-.82 0-1.49.67-1.49 1.49v3.51h-2.51c-.82 0-1.49.67-1.49 1.49v3.51H3.6c-.427 0-.835.182-1.12.497-.286.315-.426.74-.38 1.185l.406 3.318h-1.37c-.32 0-.623.14-.83.386l-.306.41 5.96 41.856c.137.78.812 1.348 1.604 1.348h44.942c.79 0 1.467-.565 1.61-1.38l5.887-41.352c.056-.316-.03-.637-.237-.882zM12.036 2.51h36v3h-36v-3zm-4 5h44v3h-44v-3zm-3.883 5h51.765l-.367 3H4.52l-.367-3zm25.383 42c-11.304 0-20.5-7.626-20.5-17s9.196-17 20.5-17 20.5 7.626 20.5 17-9.196 17-20.5 17z"/><path d="M30.536 25.45c0-.554-.447-1-1-1-3.993 0-7.778 1.21-10.946 3.498-.447.323-.548.948-.225 1.396.195.27.5.414.812.414.203 0 .407-.062.585-.19 2.824-2.04 6.204-3.12 9.774-3.12.553 0 1-.446 1-1zm0 3.75c0-.553-.447-1-1-1-3.105 0-6.05.94-8.512 2.723-.447.324-.548.95-.225 1.396.19.27.5.41.81.41.2 0 .41-.06.58-.19 2.12-1.53 4.66-2.347 7.34-2.347.552 0 1-.448 1-1zm0 3.75c0-.553-.447-1-1-1-2.23 0-4.34.68-6.104 1.967-.446.325-.545.95-.22 1.396.196.27.5.41.81.41.204 0 .41-.062.588-.19 1.42-1.036 3.124-1.583 4.926-1.583.553 0 1-.447 1-1zM39.4 45.638c-2.824 2.042-6.204 3.12-9.774 3.12-.553 0-1 .448-1 1s.447 1 1 1c3.994 0 7.78-1.21 10.946-3.5.447-.323.548-.948.225-1.395-.323-.45-.95-.55-1.397-.225zm-10.774.37c0 .553.447 1 1 1 3.106 0 6.05-.942 8.512-2.724.448-.324.548-.95.225-1.396-.325-.448-.95-.548-1.396-.225-2.12 1.534-4.657 2.345-7.34 2.345-.554 0-1 .447-1 1zm0-3.75c0 .552.447 1 1 1 2.23 0 4.34-.68 6.104-1.968.445-.325.544-.95.218-1.397-.324-.444-.95-.544-1.397-.218-1.41 1.035-3.12 1.582-4.92 1.582-.55 0-1 .447-1 1z"/><ellipse cx="29.932" cy="37.494" rx="2.327" ry="1.689"/></g></svg>